<svg width="5000" height="1426" viewBox="0 0 5000 1426" fill="none" xmlns="http://www.w3.org/2000/svg">
<path d="M44.1528 1102V323.017H241.641V686.177L176.909 623.639H481.919L417.187 686.177V323.017H614.675V1102H417.187V734.452L481.919 796.99H176.909L241.641 734.452V1102H44.1528ZM899.508 1115.17C863.668 1115.17 830.753 1108.58 800.764 1095.42C770.775 1082.25 746.637 1062.87 728.351 1037.27C710.797 1011.67 702.02 980.581 702.02 944.009C702.02 894.271 718.477 855.505 751.392 827.71C785.038 799.916 827.096 780.167 877.565 768.464L1042.14 731.16C1042.14 702.634 1037.02 679.96 1026.78 663.136C1017.27 645.582 998.253 636.805 969.726 636.805C947.052 636.805 929.863 643.388 918.16 656.553C906.457 668.988 899.508 683.617 897.314 700.44L706.408 691.663C717.38 632.416 745.906 585.238 791.987 550.129C838.799 514.288 896.582 496.368 965.338 496.368C1059.69 496.368 1126.99 517.946 1167.22 561.101C1208.18 604.256 1228.66 665.331 1228.66 744.326V928.649C1228.66 944.741 1231.22 955.712 1236.34 961.564C1241.46 967.415 1248.4 970.341 1257.18 970.341H1272.54V1102C1268.15 1102.73 1260.47 1103.83 1249.5 1105.29C1239.26 1107.49 1227.92 1108.58 1215.49 1108.58C1183.31 1108.58 1155.88 1102.73 1133.2 1091.03C1110.53 1079.33 1092.97 1062.87 1080.54 1041.66C1068.84 1020.44 1062.25 995.941 1060.79 968.147H1076.15C1073.96 995.941 1065.54 1021.18 1050.92 1043.85C1037.02 1065.79 1017.27 1083.35 991.67 1096.51C966.801 1108.95 936.08 1115.17 899.508 1115.17ZM944.492 983.507C964.241 983.507 981.429 979.85 996.058 972.535C1010.69 964.489 1022.02 952.786 1030.07 937.426C1038.12 921.334 1042.14 901.586 1042.14 878.18V854.042L943.395 878.18C925.109 882.568 911.943 889.151 903.897 897.928C896.582 906.706 892.925 919.872 892.925 937.426C892.925 951.323 896.948 962.661 904.994 971.438C913.771 979.484 926.937 983.507 944.492 983.507ZM1651.73 1115.17C1594.68 1115.17 1543.84 1102 1499.23 1075.67C1455.34 1049.34 1420.6 1013.13 1395 967.049C1370.13 920.237 1357.69 866.477 1357.69 805.767C1357.69 745.058 1370.13 691.663 1395 645.582C1420.6 598.77 1455.34 562.198 1499.23 535.866C1543.84 509.534 1594.68 496.368 1651.73 496.368C1700.01 496.368 1744.26 506.608 1784.49 527.089C1825.45 546.838 1859.09 574.998 1885.43 611.57C1911.76 647.41 1927.48 689.468 1932.6 737.743L1750.47 746.521C1743.89 717.263 1732.19 694.954 1715.37 679.594C1699.27 664.234 1678.79 656.553 1653.92 656.553C1621.74 656.553 1596.51 670.085 1578.22 697.148C1559.94 723.48 1550.79 759.686 1550.79 805.767C1550.79 851.848 1559.94 888.42 1578.22 915.483C1596.51 941.815 1621.74 954.981 1653.92 954.981C1679.53 954.981 1700.37 946.935 1716.46 930.843C1733.29 914.752 1744.62 892.077 1750.47 862.819L1932.6 871.597C1927.48 919.872 1911.76 962.295 1885.43 998.867C1859.83 1035.44 1826.54 1063.97 1785.58 1084.45C1745.35 1104.93 1700.74 1115.17 1651.73 1115.17ZM2017.75 1102V323.017H2204.27V728.966L2388.59 509.534H2601.44L2382.01 764.075L2610.22 1102H2401.76L2261.32 882.568L2204.27 946.203V1102H2017.75Z" fill="white"/>
<path fill-rule="evenodd" clip-rule="evenodd" d="M4522.67 718.489H5000L4559.99 60.6279H3661.35L3460.34 339.633C3463.28 338.068 3466.27 336.551 3469.31 335.083C3510.27 315.334 3560.38 305.46 3619.62 305.46C3676.68 305.46 3725.32 315.334 3765.55 335.083C3805.78 354.832 3836.86 384.821 3858.8 425.05C3881.48 464.548 3894.28 514.651 3897.21 575.361L3698.62 583.041C3695.69 558.904 3690.21 538.789 3682.16 522.697C3674.85 506.606 3664.97 494.537 3652.54 486.491C3640.1 478.445 3625.84 474.422 3609.75 474.422C3589.27 474.422 3572.81 480.274 3560.38 491.977C3548.67 503.68 3542.82 519.772 3542.82 540.252C3542.82 555.612 3546.85 569.144 3554.89 580.847C3563.67 591.818 3577.93 602.059 3597.68 611.567C3618.16 620.344 3645.96 628.756 3681.06 636.802C3737.39 649.236 3781.64 666.791 3813.82 689.466C3846 712.14 3868.68 739.203 3881.84 770.655C3895.74 801.376 3902.69 836.485 3902.69 875.982C3902.69 926.452 3891.72 969.972 3869.78 1006.54C3847.83 1042.38 3815.65 1070.18 3773.23 1089.93C3731.53 1109.68 3680.33 1119.55 3619.62 1119.55C3558.18 1119.55 3506.62 1108.21 3464.92 1085.54C3423.96 1062.87 3392.51 1029.95 3370.57 986.796C3349.36 943.641 3336.56 890.977 3332.17 828.805L3528.56 820.027C3532.95 850.016 3539.53 874.885 3548.31 894.634C3557.09 913.652 3568.42 927.915 3582.32 937.423C3596.22 946.201 3612.68 950.589 3631.69 950.589C3646.32 950.589 3659.12 948.395 3670.09 944.006C3681.06 938.886 3689.48 931.572 3695.33 922.063C3701.91 912.554 3705.2 900.851 3705.2 886.954C3705.2 870.131 3700.81 855.502 3692.04 843.068C3683.99 829.902 3670.46 818.199 3651.44 807.959C3632.42 797.719 3607.19 788.941 3575.74 781.627C3525.27 769.924 3482.84 754.929 3448.47 736.643C3414.09 718.357 3388.12 694.586 3370.57 665.328C3353.75 635.339 3345.33 597.304 3345.33 551.223C3345.33 530.252 3347.1 510.48 3350.64 491.908L3277.24 593.797H2728.3L3158.28 1255.96H4059.79L4173.1 1102H4022.95V323.014H4284.07C4337.47 323.014 4385.01 334.352 4426.7 357.026C4468.4 378.969 4500.95 409.324 4524.35 448.091C4548.49 486.857 4560.56 531.475 4560.56 581.944C4560.56 632.413 4548.49 677.031 4524.35 715.797C4523.8 716.699 4523.24 717.596 4522.67 718.489ZM4376.1 826.185L4220.44 1037.68V838.679H4284.07C4316.97 838.679 4347.65 834.514 4376.1 826.185ZM4264.32 665.328H4220.44V496.365H4264.32C4295.78 496.365 4319.18 503.68 4334.54 518.309C4350.63 532.206 4358.68 553.418 4358.68 581.944C4358.68 609.739 4350.63 630.585 4334.54 644.482C4319.18 658.379 4295.78 665.328 4264.32 665.328Z" fill="#FA1629"/>
</svg>
