<svg width="5000" height="1426" viewBox="0 0 5000 1426" fill="none" xmlns="http://www.w3.org/2000/svg">
<path d="M44.1528 1102V323.017H241.641V686.177L176.909 623.639H481.919L417.187 686.177V323.017H614.675V1102H417.187V734.452L481.919 796.99H176.909L241.641 734.452V1102H44.1528ZM899.508 1115.17C863.668 1115.17 830.753 1108.58 800.764 1095.42C770.775 1082.25 746.637 1062.87 728.351 1037.27C710.797 1011.67 702.02 980.581 702.02 944.009C702.02 894.271 718.477 855.505 751.392 827.71C785.038 799.916 827.096 780.167 877.565 768.464L1042.14 731.16C1042.14 702.634 1037.02 679.96 1026.78 663.136C1017.27 645.582 998.253 636.805 969.726 636.805C947.052 636.805 929.863 643.388 918.16 656.553C906.457 668.988 899.508 683.617 897.314 700.44L706.408 691.663C717.38 632.416 745.906 585.238 791.987 550.129C838.799 514.288 896.582 496.368 965.338 496.368C1059.69 496.368 1126.99 517.946 1167.22 561.101C1208.18 604.256 1228.66 665.331 1228.66 744.326V928.649C1228.66 944.741 1231.22 955.712 1236.34 961.564C1241.46 967.415 1248.4 970.341 1257.18 970.341H1272.54V1102C1268.15 1102.73 1260.47 1103.83 1249.5 1105.29C1239.26 1107.49 1227.92 1108.58 1215.49 1108.58C1183.31 1108.58 1155.88 1102.73 1133.2 1091.03C1110.53 1079.33 1092.97 1062.87 1080.54 1041.66C1068.84 1020.44 1062.25 995.941 1060.79 968.147H1076.15C1073.96 995.941 1065.54 1021.18 1050.92 1043.85C1037.02 1065.79 1017.27 1083.35 991.67 1096.51C966.801 1108.95 936.08 1115.17 899.508 1115.17ZM944.492 983.507C964.241 983.507 981.429 979.85 996.058 972.535C1010.69 964.489 1022.02 952.786 1030.07 937.426C1038.12 921.334 1042.14 901.586 1042.14 878.18V854.042L943.395 878.18C925.109 882.568 911.943 889.151 903.897 897.928C896.582 906.706 892.925 919.872 892.925 937.426C892.925 951.323 896.948 962.661 904.994 971.438C913.771 979.484 926.937 983.507 944.492 983.507ZM1651.73 1115.17C1594.68 1115.17 1543.84 1102 1499.23 1075.67C1455.34 1049.34 1420.6 1013.13 1395 967.049C1370.13 920.237 1357.69 866.477 1357.69 805.767C1357.69 745.058 1370.13 691.663 1395 645.582C1420.6 598.77 1455.34 562.198 1499.23 535.866C1543.84 509.534 1594.68 496.368 1651.73 496.368C1700.01 496.368 1744.26 506.608 1784.49 527.089C1825.45 546.838 1859.09 574.998 1885.43 611.57C1911.76 647.41 1927.48 689.468 1932.6 737.743L1750.47 746.521C1743.89 717.263 1732.19 694.954 1715.37 679.594C1699.27 664.234 1678.79 656.553 1653.92 656.553C1621.74 656.553 1596.51 670.085 1578.22 697.148C1559.94 723.48 1550.79 759.686 1550.79 805.767C1550.79 851.848 1559.94 888.42 1578.22 915.483C1596.51 941.815 1621.74 954.981 1653.92 954.981C1679.53 954.981 1700.37 946.935 1716.46 930.843C1733.29 914.752 1744.62 892.077 1750.47 862.819L1932.6 871.597C1927.48 919.872 1911.76 962.295 1885.43 998.867C1859.83 1035.44 1826.54 1063.97 1785.58 1084.45C1745.35 1104.93 1700.74 1115.17 1651.73 1115.17ZM2017.75 1102V323.017H2204.27V728.966L2388.59 509.534H2601.44L2382.01 764.075L2610.22 1102H2401.76L2261.32 882.568L2204.27 946.203V1102H2017.75Z" fill="black"/>
<path fill-rule="evenodd" clip-rule="evenodd" d="M4522.37 718.861H4999.7L4559.69 61H3661.04L3460.04 340.005C3462.98 338.44 3465.97 336.923 3469.01 335.455C3509.97 315.706 3560.08 305.832 3619.32 305.832C3676.38 305.832 3725.02 315.706 3765.25 335.455C3805.47 355.204 3836.56 385.193 3858.5 425.422C3881.18 464.92 3893.98 515.024 3896.9 575.733L3698.32 583.413C3695.39 559.276 3689.91 539.161 3681.86 523.069C3674.55 506.978 3664.67 494.909 3652.24 486.863C3639.8 478.817 3625.54 474.794 3609.45 474.794C3588.97 474.794 3572.51 480.646 3560.08 492.349C3548.37 504.052 3542.52 520.144 3542.52 540.624C3542.52 555.984 3546.54 569.516 3554.59 581.219C3563.37 592.19 3577.63 602.431 3597.38 611.939C3617.86 620.717 3645.66 629.128 3680.76 637.174C3737.08 649.608 3781.34 667.163 3813.52 689.838C3845.7 712.512 3868.38 739.575 3881.54 771.027C3895.44 801.748 3902.39 836.857 3902.39 876.355C3902.39 926.824 3891.42 970.344 3869.48 1006.92C3847.53 1042.76 3815.35 1070.55 3772.93 1090.3C3731.23 1110.05 3680.03 1119.92 3619.32 1119.92C3557.88 1119.92 3506.32 1108.59 3464.62 1085.91C3423.66 1063.24 3392.21 1030.32 3370.27 987.168C3349.06 944.013 3336.26 891.349 3331.87 829.177L3528.26 820.399C3532.65 850.388 3539.23 875.257 3548.01 895.006C3556.79 914.024 3568.12 928.287 3582.02 937.795C3595.92 946.573 3612.37 950.961 3631.39 950.961C3646.02 950.961 3658.82 948.767 3669.79 944.378C3680.76 939.258 3689.18 931.944 3695.03 922.435C3701.61 912.927 3704.9 901.224 3704.9 887.326C3704.9 870.503 3700.51 855.874 3691.74 843.44C3683.69 830.274 3670.16 818.571 3651.14 808.331C3632.12 798.091 3606.89 789.313 3575.44 781.999C3524.97 770.296 3482.54 755.301 3448.17 737.015C3413.79 718.729 3387.82 694.958 3370.27 665.7C3353.45 635.711 3345.03 597.676 3345.03 551.596C3345.03 530.624 3346.8 510.852 3350.34 492.28L3276.93 594.169H2728L3157.97 1256.33H4059.49L4172.8 1102.37H4022.65V323.386H4283.77C4337.17 323.386 4384.71 334.724 4426.4 357.398C4468.1 379.342 4500.64 409.696 4524.05 448.463C4548.19 487.229 4560.26 531.847 4560.26 582.316C4560.26 632.785 4548.19 677.403 4524.05 716.169C4523.5 717.071 4522.94 717.969 4522.37 718.861ZM4375.8 826.557L4220.14 1038.06V839.051H4283.77C4316.67 839.051 4347.35 834.886 4375.8 826.557ZM4264.02 665.7H4220.14V496.738H4264.02C4295.48 496.738 4318.88 504.052 4334.24 518.681C4350.33 532.578 4358.38 553.79 4358.38 582.316C4358.38 610.111 4350.33 630.957 4334.24 644.854C4318.88 658.751 4295.48 665.7 4264.02 665.7Z" fill="#FA1629"/>
</svg>
