<svg width="2632" height="2621" viewBox="0 0 2632 2621" fill="none" xmlns="http://www.w3.org/2000/svg">
<path d="M44.1528 1102V323.017H241.641V686.177L176.909 623.639H481.919L417.187 686.177V323.017H614.675V1102H417.187V734.452L481.919 796.99H176.909L241.641 734.452V1102H44.1528ZM899.508 1115.17C863.668 1115.17 830.753 1108.58 800.764 1095.42C770.775 1082.25 746.637 1062.87 728.351 1037.27C710.797 1011.67 702.02 980.581 702.02 944.009C702.02 894.271 718.477 855.505 751.392 827.71C785.038 799.916 827.096 780.167 877.565 768.464L1042.14 731.16C1042.14 702.634 1037.02 679.96 1026.78 663.136C1017.27 645.582 998.253 636.805 969.726 636.805C947.052 636.805 929.863 643.388 918.16 656.553C906.457 668.988 899.508 683.617 897.314 700.44L706.408 691.663C717.38 632.416 745.906 585.238 791.987 550.129C838.799 514.288 896.582 496.368 965.338 496.368C1059.69 496.368 1126.99 517.946 1167.22 561.101C1208.18 604.256 1228.66 665.331 1228.66 744.326V928.649C1228.66 944.741 1231.22 955.712 1236.34 961.564C1241.46 967.415 1248.4 970.341 1257.18 970.341H1272.54V1102C1268.15 1102.73 1260.47 1103.83 1249.5 1105.29C1239.26 1107.49 1227.92 1108.58 1215.49 1108.58C1183.31 1108.58 1155.88 1102.73 1133.2 1091.03C1110.53 1079.33 1092.97 1062.87 1080.54 1041.66C1068.84 1020.44 1062.25 995.941 1060.79 968.147H1076.15C1073.96 995.941 1065.54 1021.18 1050.92 1043.85C1037.02 1065.79 1017.27 1083.35 991.67 1096.51C966.801 1108.95 936.08 1115.17 899.508 1115.17ZM944.492 983.507C964.241 983.507 981.429 979.85 996.058 972.535C1010.69 964.489 1022.02 952.786 1030.07 937.426C1038.12 921.334 1042.14 901.586 1042.14 878.18V854.042L943.395 878.18C925.109 882.568 911.943 889.151 903.897 897.928C896.582 906.706 892.925 919.872 892.925 937.426C892.925 951.323 896.948 962.661 904.994 971.438C913.771 979.484 926.937 983.507 944.492 983.507ZM1651.73 1115.17C1594.68 1115.17 1543.84 1102 1499.23 1075.67C1455.34 1049.34 1420.6 1013.13 1395 967.049C1370.13 920.237 1357.69 866.477 1357.69 805.767C1357.69 745.058 1370.13 691.663 1395 645.582C1420.6 598.77 1455.34 562.198 1499.23 535.866C1543.84 509.534 1594.68 496.368 1651.73 496.368C1700.01 496.368 1744.26 506.608 1784.49 527.089C1825.45 546.838 1859.09 574.998 1885.43 611.57C1911.76 647.41 1927.48 689.468 1932.6 737.743L1750.47 746.521C1743.89 717.263 1732.19 694.954 1715.37 679.594C1699.27 664.234 1678.79 656.553 1653.92 656.553C1621.74 656.553 1596.51 670.085 1578.22 697.148C1559.94 723.48 1550.79 759.686 1550.79 805.767C1550.79 851.848 1559.94 888.42 1578.22 915.483C1596.51 941.815 1621.74 954.981 1653.92 954.981C1679.53 954.981 1700.37 946.935 1716.46 930.843C1733.29 914.752 1744.62 892.077 1750.47 862.819L1932.6 871.597C1927.48 919.872 1911.76 962.295 1885.43 998.867C1859.83 1035.44 1826.54 1063.97 1785.58 1084.45C1745.35 1104.93 1700.74 1115.17 1651.73 1115.17ZM2017.75 1102V323.017H2204.27V728.966L2388.59 509.534H2601.44L2382.01 764.075L2610.22 1102H2401.76L2261.32 882.568L2204.27 946.203V1102H2017.75Z" fill="white"/>
<path fill-rule="evenodd" clip-rule="evenodd" d="M1974.67 2083.49H2452L2011.99 1425.63H1113.35L912.342 1704.63C915.278 1703.07 918.268 1701.55 921.313 1700.08C962.274 1680.33 1012.38 1670.46 1071.62 1670.46C1128.68 1670.46 1177.32 1680.33 1217.55 1700.08C1257.78 1719.83 1288.86 1749.82 1310.8 1790.05C1333.48 1829.55 1346.28 1879.65 1349.21 1940.36L1150.62 1948.04C1147.69 1923.9 1142.21 1903.79 1134.16 1887.7C1126.85 1871.61 1116.97 1859.54 1104.54 1851.49C1092.1 1843.45 1077.84 1839.42 1061.75 1839.42C1041.27 1839.42 1024.81 1845.27 1012.38 1856.98C1000.67 1868.68 994.823 1884.77 994.823 1905.25C994.823 1920.61 998.846 1934.14 1006.89 1945.85C1015.67 1956.82 1029.93 1967.06 1049.68 1976.57C1070.16 1985.34 1097.96 1993.76 1133.06 2001.8C1189.39 2014.24 1233.64 2031.79 1265.82 2054.47C1298 2077.14 1320.68 2104.2 1333.84 2135.66C1347.74 2166.38 1354.69 2201.48 1354.69 2240.98C1354.69 2291.45 1343.72 2334.97 1321.78 2371.54C1299.83 2407.38 1267.65 2435.18 1225.23 2454.93C1183.53 2474.68 1132.33 2484.55 1071.62 2484.55C1010.18 2484.55 958.617 2473.21 916.925 2450.54C875.964 2427.87 844.512 2394.95 822.569 2351.8C801.357 2308.64 788.557 2255.98 784.168 2193.8L980.56 2185.03C984.948 2215.02 991.531 2239.89 1000.31 2259.63C1009.09 2278.65 1020.42 2292.91 1034.32 2302.42C1048.22 2311.2 1064.68 2315.59 1083.69 2315.59C1098.32 2315.59 1111.12 2313.39 1122.09 2309.01C1133.06 2303.89 1141.48 2296.57 1147.33 2287.06C1153.91 2277.55 1157.2 2265.85 1157.2 2251.95C1157.2 2235.13 1152.81 2220.5 1144.04 2208.07C1135.99 2194.9 1122.46 2183.2 1103.44 2172.96C1084.42 2162.72 1059.19 2153.94 1027.74 2146.63C977.268 2134.92 934.845 2119.93 900.467 2101.64C866.09 2083.36 840.123 2059.59 822.569 2030.33C805.746 2000.34 797.334 1962.3 797.334 1916.22C797.334 1895.25 799.102 1875.48 802.639 1856.91L729.235 1958.8H180.301L610.276 2620.96H1511.79L1625.1 2467H1474.95V1688.01H1736.07C1789.47 1688.01 1837.01 1699.35 1878.7 1722.03C1920.4 1743.97 1952.95 1774.32 1976.35 1813.09C2000.49 1851.86 2012.56 1896.47 2012.56 1946.94C2012.56 1997.41 2000.49 2042.03 1976.35 2080.8C1975.8 2081.7 1975.24 2082.6 1974.67 2083.49ZM1828.1 2191.19L1672.44 2402.68V2203.68H1736.07C1768.97 2203.68 1799.65 2199.51 1828.1 2191.19ZM1716.32 2030.33H1672.44V1861.37H1716.32C1747.78 1861.37 1771.18 1868.68 1786.54 1883.31C1802.63 1897.21 1810.68 1918.42 1810.68 1946.94C1810.68 1974.74 1802.63 1995.58 1786.54 2009.48C1771.18 2023.38 1747.78 2030.33 1716.32 2030.33Z" fill="#FA1629"/>
</svg>
